<svg width="64" height="64" viewBox="0 0 64 64" fill="none" xmlns="http://www.w3.org/2000/svg">
<path d="M57.28 32C57.28 45.9618 45.9618 57.28 32 57.28C18.0382 57.28 6.72 45.9618 6.72 32C6.72 18.0382 18.0382 6.72 32 6.72C45.9618 6.72 57.28 18.0382 57.28 32Z" fill="white"/>
<path d="M32 0C40.4869 0 48.6263 3.37142 54.6274 9.37258C60.6286 15.3737 64 23.5131 64 32C64 40.4869 60.6286 48.6263 54.6274 54.6274C48.6263 60.6286 40.4869 64 32 64C23.5131 64 15.3737 60.6286 9.37258 54.6274C3.37142 48.6263 0 40.4869 0 32C0 23.5131 3.37142 15.3737 9.37258 9.37258C15.3737 3.37142 23.5131 0 32 0ZM37.472 11.5733C34.016 12.7147 32.352 15.936 33.3493 19.5947L33.7067 20.944C32.96 21.104 32.224 21.3173 31.5093 21.5947C28.1333 22.896 25.456 25.7813 24.5173 29.1307C24.1827 30.3231 24.0671 31.5663 24.176 32.8C24.2914 34.1291 24.6946 35.4172 25.3577 36.5749C26.0208 37.7326 26.9279 38.7321 28.016 39.504C29.0028 40.2 30.1328 40.6665 31.3232 40.8695C32.5136 41.0726 33.7343 41.0069 34.896 40.6773C36.5813 40.2187 38.0747 39.2213 39.1413 37.84C40.7947 35.6907 41.28 32.8587 40.528 29.872C40.2507 28.7893 39.904 27.5787 39.568 26.416L39.2107 25.1467C40.64 25.504 41.9573 26.2133 43.04 27.216C46.7733 30.704 47.4933 36.7093 44.7147 41.1893C42.272 45.12 37.5147 47.6587 32.6027 47.6587C28.6156 47.6558 24.7926 46.0711 21.9728 43.2523C19.153 40.4335 17.5669 36.6111 17.5627 32.624C17.5612 30.2013 18.1553 27.8155 19.2927 25.6764C20.4301 23.5374 22.076 21.7107 24.0853 20.3573C24.9707 19.7653 25.9147 19.2587 26.9067 18.864C27.4279 18.6554 27.8449 18.2482 28.066 17.7321C28.287 17.216 28.294 16.6332 28.0853 16.112C27.8767 15.5908 27.4695 15.1738 26.9534 14.9527C26.4373 14.7317 25.8546 14.7247 25.3333 14.9333C21.9842 16.2896 19.083 18.5588 16.96 21.4827C14.6129 24.7264 13.3443 28.6255 13.3333 32.6293C13.3404 37.7367 15.3732 42.6328 18.9856 46.2432C22.5981 49.8537 27.4953 51.8838 32.6027 51.888C38.9493 51.888 45.1093 48.5653 48.304 43.4133C52.192 37.1573 51.184 29.0453 45.9253 24.128C43.7453 22.1239 40.9572 20.9072 38.0053 20.672C37.8161 19.9424 37.6241 19.2135 37.4293 18.4853C37.2687 17.9719 37.2503 17.4244 37.376 16.9013C37.537 16.3807 37.892 15.9419 38.3675 15.6758C38.8431 15.4098 39.4028 15.3368 39.9307 15.472C40.2293 15.5467 40.5067 15.6853 40.7467 15.872C41.008 16.064 41.2053 16.3147 41.44 16.5333C41.8051 16.8682 42.276 17.0645 42.7708 17.088C43.2656 17.1115 43.753 16.9607 44.1482 16.662C44.5433 16.3632 44.8212 15.9354 44.9335 15.4529C45.0458 14.9704 44.9853 14.4639 44.7627 14.0213L44.72 13.952C44.464 13.5344 44.1395 13.163 43.76 12.8533C42.754 11.9944 41.5162 11.4525 40.2027 11.296C39.2827 11.1919 38.3511 11.2884 37.472 11.5787V11.5733ZM34.7893 25.0347C35.0133 25.8613 35.2587 26.7253 35.5093 27.5787C35.8347 28.7307 36.1653 29.872 36.4267 30.912C36.736 32.1173 36.8693 33.856 35.7867 35.2747C35.2776 35.9265 34.5698 36.3946 33.7707 36.608C33.2059 36.7706 32.6117 36.8032 32.0326 36.7035C31.4535 36.6037 30.9044 36.3742 30.4267 36.032C29.8471 35.616 29.3648 35.0791 29.0131 34.4585C28.6613 33.8379 28.4485 33.1483 28.3893 32.4373C28.3221 31.7096 28.389 30.9756 28.5867 30.272C29.1733 28.1867 30.8747 26.3733 33.0293 25.5413C33.6053 25.3173 34.1973 25.152 34.7893 25.0347Z" fill="#DD001B"/>
</svg>
